<svg width="720" height="420" viewBox="0 0 720 420" fill="none" xmlns="http://www.w3.org/2000/svg">
  <rect width="720" height="420" rx="28" fill="#F2E8D5"/>
  <circle cx="615" cy="90" r="42" fill="#FFD36E"/>
  <path d="M88 348C138 292 201 264 277 264C361 264 426 294 492 332C540 359 589 372 638 372" stroke="#7B8B5A" stroke-width="18" stroke-linecap="round"/>
  <path d="M86 343C66 312 71 272 98 252C126 232 171 234 194 264C213 289 214 326 193 349" fill="#B6C88A"/>
  <rect x="236" y="94" width="244" height="210" rx="28" fill="#93BB6F"/>
  <rect x="214" y="118" width="44" height="148" rx="18" fill="#93BB6F"/>
  <rect x="458" y="118" width="44" height="148" rx="18" fill="#93BB6F"/>
  <rect x="280" y="58" width="156" height="74" rx="18" fill="#1E2A1C"/>
  <path d="M270 74L301 42H450L420 74H270Z" fill="#1E2A1C"/>
  <rect x="272" y="83" width="28" height="28" rx="8" fill="#93BB6F"/>
  <rect x="416" y="83" width="28" height="28" rx="8" fill="#93BB6F"/>
  <rect x="218" y="311" width="280" height="26" rx="13" fill="#2A2018" opacity="0.16"/>
  <circle cx="308" cy="169" r="34" fill="white"/>
  <circle cx="413" cy="169" r="34" fill="white"/>
  <circle cx="318" cy="176" r="16" fill="#2D2D2D"/>
  <circle cx="403" cy="176" r="16" fill="#2D2D2D"/>
  <circle cx="325" cy="170" r="5" fill="white"/>
  <circle cx="410" cy="170" r="5" fill="white"/>
  <path d="M320 225C337 210 386 209 401 226" stroke="#2D2D2D" stroke-width="10" stroke-linecap="round"/>
  <rect x="348" y="199" width="18" height="22" rx="8" fill="#6C8455"/>
  <path d="M292 248C315 280 402 287 425 248" stroke="#2D2D2D" stroke-width="10" stroke-linecap="round"/>
  <rect x="300" y="251" width="18" height="22" rx="4" fill="#FFF7E8"/>
  <rect x="322" y="256" width="18" height="17" rx="4" fill="#FFF7E8"/>
  <rect x="344" y="258" width="18" height="15" rx="4" fill="#FFF7E8"/>
  <rect x="366" y="256" width="18" height="17" rx="4" fill="#FFF7E8"/>
  <rect x="388" y="251" width="18" height="22" rx="4" fill="#FFF7E8"/>
  <path d="M302 240C330 251 389 251 416 240" stroke="#C75B56" stroke-width="7" stroke-linecap="round"/>
  <rect x="198" y="186" width="24" height="18" rx="6" fill="#C2C7CC"/>
  <rect x="498" y="186" width="24" height="18" rx="6" fill="#C2C7CC"/>
  <rect x="184" y="190" width="18" height="10" rx="5" fill="#7F8A94"/>
  <rect x="522" y="190" width="18" height="10" rx="5" fill="#7F8A94"/>
  <path d="M140 112C155 92 178 88 200 104" stroke="#2A2018" stroke-width="9" stroke-linecap="round"/>
  <path d="M532 118C547 98 570 94 592 110" stroke="#2A2018" stroke-width="9" stroke-linecap="round"/>
  <path d="M138 134C152 120 174 121 188 136" stroke="#2A2018" stroke-width="9" stroke-linecap="round"/>
  <path d="M534 140C548 126 570 127 584 142" stroke="#2A2018" stroke-width="9" stroke-linecap="round"/>
  <path d="M120 188C146 161 190 163 214 190" stroke="#2A2018" stroke-width="9" stroke-linecap="round"/>
  <path d="M508 193C534 166 578 168 602 195" stroke="#2A2018" stroke-width="9" stroke-linecap="round"/>
  <path d="M94 64C158 44 212 49 262 90" stroke="#E98E5C" stroke-width="14" stroke-linecap="round"/>
  <path d="M86 57L95 87L124 71" stroke="#E98E5C" stroke-width="14" stroke-linecap="round" stroke-linejoin="round"/>
  <path d="M507 53C565 42 611 60 652 102" stroke="#E98E5C" stroke-width="14" stroke-linecap="round"/>
  <path d="M638 82L652 102L626 113" stroke="#E98E5C" stroke-width="14" stroke-linecap="round" stroke-linejoin="round"/>
  <text x="44" y="382" fill="#2A2018" font-family="Georgia, serif" font-size="38" font-weight="700">The server made a monster.</text>
  <text x="46" y="408" fill="#4F5B37" font-family="Georgia, serif" font-size="18">And then it taught the monster to run the economy.</text>
</svg>
